<svg xmlns="http://www.w3.org/2000/svg" viewBox="0 0 814 1000" fill="currentColor" aria-hidden="true">
  <path d="M788.1 340.9c-5.8 4.5-108.2 62.2-108.2 190.5 0 148.4 130.3 200.9 134.2 202.2-.6 3.2-20.2 92.2-66.8 181.9-42.8 86.2-87.2 172.1-155.1 172.1s-85.7-46-132.8-46c-47.1 0-91.4 46-132.8 46-46.5 0-90.8-81-141.4-176.6C71.8 505.1 0 313.8 0 189.8 0 80.4 62.4 0 161.4 0c63.4 0 120.3 38.7 149.2 38.7 28.9 0 96.7-46 176.4-46 28.9 0 130.9 2.6 198.3 99.2zm-234-181.5c31.5-36.7 52.8-87.5 52.8-140.3 0-7.1-.6-14.3-1.9-20.1-50.6 1.9-113 33.7-150.4 75.4-32.8 36.7-61.7 88.3-61.7 143.2 0 7.2 1.3 14.4 1.9 20.2 33-4.1 67.4-21.1 92.4-46 15.2-15.2 27.9-33.2 37.3-52.4z"/>
</svg>
